<svg width="40" height="40" viewBox="0 0 40 40" fill="none" xmlns="http://www.w3.org/2000/svg">
<rect x="0.5" y="0.5" width="39" height="39" rx="5.5" stroke="#F6F5EF" stroke-opacity="0.5"/>
<path fill-rule="evenodd" clip-rule="evenodd" d="M25.15 13.7499C24.3 13.6999 22.55 13.6499 19.9 13.6499H19.55C17 13.6499 15.3 13.6999 14.45 13.7999C13.3 13.8999 12.5 14.1999 12.05 14.5999C11.65 14.9499 11.35 15.5999 11.25 16.4499C11.2 16.9999 11.15 18.1499 11.15 19.8999V20.1499C11.15 21.7999 11.2 22.9499 11.3 23.4999C11.45 24.2999 11.7 24.8999 12.2 25.2499C12.7 25.6499 13.55 25.8999 14.75 25.9999C15.6 26.0499 17.35 26.0999 20 26.0999H20.35C22.9 26.0999 24.6 26.0499 25.45 25.9499C26.6 25.8499 27.4 25.5499 27.85 25.1499C28.25 24.7999 28.55 24.1499 28.65 23.2999C28.7 22.7499 28.75 21.5999 28.75 19.8499V19.5999C28.75 17.9499 28.7 16.7999 28.6 16.2499C28.45 15.4499 28.2 14.8499 27.7 14.4999C27.2 14.0999 26.35 13.8499 25.15 13.7499ZM23.2 19.8999L17.7 23.1999V16.5999L23.2 19.8999Z" fill="#F6F5EF"/>
</svg>
