<svg width="1280" height="3497" viewBox="0 0 1280 3497" fill="none" xmlns="http://www.w3.org/2000/svg">
<g opacity="0.15">
<path d="M537.893 266.82C497.261 217.747 370.702 213.991 423.513 317.101C432.173 334.008 441.894 364.118 449.811 401.52C457.064 435.783 399.619 466.339 393.767 513.538C384.589 587.559 513.11 613.209 506.177 652.526C497.096 704.022 430.865 738.342 398.721 771.741C368.461 803.182 356.473 846.599 359.653 888.256C365.233 961.338 417.499 1029 499.695 1017.06C540.842 1011.08 589.489 985.161 643.534 929.984C667.698 905.315 689.344 884.651 708.972 867.534C759.488 823.477 767.068 903.254 840.015 892.204C881.579 885.908 903.859 811.495 947.322 840.545C978.227 861.201 1014.21 886.557 1061.79 910.587C1145.36 952.788 1230.96 944.908 1218.27 864.186C1212.28 826.08 1184.38 771.742 1124.04 698.777C1085.42 652.084 1142.47 643.02 1128.6 576.336C1114.73 509.653 1052.1 489.713 1082.19 455.222L1082.8 454.531C1105.74 428.244 1130.21 400.208 1134.14 354.639C1137.53 315.385 1124.89 279.585 1102.93 254.43C1079.42 227.509 1045.24 212.782 1008.63 219.067C971.89 225.373 932.697 252.834 899.367 310.355C877.393 348.281 832.757 278.449 777.999 296.994C723.242 315.538 737.541 388.449 696.877 374.324C626.24 349.787 585.48 324.294 537.893 266.82Z" stroke="white" stroke-width="1.19883"/>
<path d="M744.468 537.39C738.262 529.851 721.976 535.275 723.9 544.369C726.089 554.724 736.174 566.828 738.66 577.151C743.46 597.084 737.147 604.235 724.332 617.691C719.737 622.508 717.929 629.167 718.429 635.56C719.307 646.775 727.292 657.17 739.802 655.358C746.065 654.451 753.462 650.485 761.669 642.031C765.339 638.252 768.627 635.086 771.608 632.465C784.379 620.378 801.116 624.706 807.889 628.381C812.603 631.558 818.091 635.457 825.346 639.156C838.087 645.651 853.055 641.601 849.153 632.074C843.639 618.614 800.598 572.693 826.178 558.323C838.061 551.649 834.706 542.35 831.352 538.485C827.763 534.348 822.553 532.08 816.981 533.036C811.389 533.995 804.631 543.623 800.38 547.017C784.687 559.546 769.636 567.357 744.468 537.39Z" stroke="white" stroke-width="1.19883"/>
<path d="M450.578 336.677C402.947 242.725 518.611 246.188 555.861 291.175C601.44 346.168 639.896 368.654 705.596 389.844C742.788 402.542 730.03 335.912 780.119 318.772C830.208 301.633 871.101 364.927 891.35 330.378C922.183 277.956 958.318 253.176 992.071 247.811C1025.54 242.267 1056.79 255.962 1078.15 280.784C1098.11 303.999 1109.42 336.932 1105.8 372.947C1099.85 416.072 1081.13 445.802 1060.6 471.115C1033.39 502.926 1090.12 521.374 1102.31 582.17C1114.49 642.967 1061.94 651.159 1096.5 693.349C1150.75 759.401 1175.63 808.487 1180.65 842.87C1191.89 916.148 1113.48 923.138 1036.84 884.742C992.935 862.877 959.528 839.985 930.827 821.738C891.01 795.545 870.438 863.534 832.285 869.605C765.539 880.04 758.288 807.739 711.99 848.018C693.799 863.788 673.792 882.699 651.521 905.185C601.208 955.552 556.221 978.201 518.705 982.627C443.895 993.201 396.371 931.347 391.384 864.579C388.579 826.402 399.633 786.64 427.376 757.816C457.792 726.213 518.63 694.34 526.461 645.69C532.658 609.452 415.435 585.61 423.507 517.758C428.551 474.31 480.541 446.002 473.844 414.362C466.554 379.922 458.037 352.199 450.578 336.677Z" stroke="white" stroke-width="1.19883"/>
<path d="M478.838 357.069C436.512 272.589 541.098 275.71 574.884 316.456C618.353 368.77 654.433 388.167 715.083 405.924C748.739 417.141 737.577 357.009 782.928 341.312C828.279 325.616 865.332 382.159 883.842 351.089C912.16 303.923 945.192 281.889 975.91 277.47C1006.18 272.673 1034.44 285.282 1053.62 307.919C1071.54 329.113 1081.48 359.069 1077.6 391.734C1069.67 431.876 1057.11 463.113 1039.17 487.176C1014.88 516.213 1065.61 533.091 1076.05 587.804C1086.49 642.516 1038.53 649.829 1068.95 687.371C1116.99 746.282 1138.79 789.954 1142.82 820.504C1152.55 886.101 1081.43 892.206 1011.86 857.762C971.725 838.147 940.955 817.801 914.512 802.03C878.417 778.79 859.547 840.146 824.862 845.983C764.415 855.794 757.543 791.199 715.515 827.589C698.779 841.966 680.433 859.071 660.077 879.31C613.548 924.724 572.28 944.044 538.452 946.919C471.14 956.12 428.466 900.286 424.114 840.046C421.71 805.471 431.835 769.488 457.033 743.364C485.69 713.648 541.057 684.306 547.654 638.656C553.124 605.612 447.398 583.694 454.386 522.224C458.638 482.664 505.107 456.678 498.994 427.764C492.362 396.399 485.077 371.155 478.838 357.069Z" stroke="white" stroke-width="1.19883"/>
<path d="M505.899 376.648C468.756 301.326 562.439 304.155 592.843 340.815C634.304 390.647 668.083 407.037 723.794 421.447C753.977 431.238 744.357 377.386 785.036 363.095C825.715 348.804 859.024 398.811 875.807 371.117C901.626 329.052 931.598 309.698 959.327 306.221C986.447 302.164 1011.78 313.742 1028.82 334.28C1044.73 353.534 1053.33 380.623 1049.22 410.049C1039.31 447.348 1032.9 480.185 1017.55 503.073C996.146 529.429 1040.98 544.816 1049.72 593.641C1058.47 642.466 1015.03 648.908 1041.39 681.947C1083.32 733.946 1102.1 772.366 1105.16 799.194C1113.44 857.346 1049.51 862.56 986.873 831.92C950.428 814.471 922.229 796.588 897.99 783.226C865.543 762.843 848.382 817.774 817.111 823.386C762.868 832.582 756.323 775.462 718.517 808.075C703.218 821.104 686.513 836.456 668.051 854.512C625.256 895.115 587.652 911.16 557.458 912.484C497.537 920.32 459.608 870.294 455.848 816.367C453.819 785.272 463.01 752.946 485.688 729.439C512.617 701.518 562.588 674.625 567.934 631.82C572.667 601.857 478.247 581.746 484.126 526.447C487.569 490.636 528.579 466.9 523.021 440.609C517.017 412.207 510.937 389.35 505.899 376.648Z" stroke="white" stroke-width="1.19883"/>
<path d="M533.84 396.055C501.905 329.89 584.529 332.456 611.518 365.036C650.931 412.398 682.359 425.789 733.047 436.866C759.71 445.237 751.62 397.67 787.551 384.799C823.483 371.929 853.018 415.401 868.031 391.093C891.287 354.142 918.138 337.481 942.832 334.956C966.754 331.65 989.12 342.204 1004 360.645C1017.89 377.963 1025.16 402.183 1020.83 428.368C1008.98 462.816 1008.75 497.257 996.023 518.965C977.56 542.631 1016.43 556.539 1023.49 599.473C1030.55 642.407 991.699 647.962 1013.97 676.501C1049.75 721.592 1065.51 754.761 1067.61 777.863C1074.45 828.564 1017.81 832.866 962.199 806.015C929.494 790.721 903.905 775.295 881.904 764.338C853.148 746.805 837.754 795.299 809.951 800.674C762.008 809.238 755.772 759.601 722.27 788.419C708.439 800.094 693.411 813.686 676.883 829.55C637.915 865.324 604.044 878.077 577.536 877.838C525.111 884.289 491.964 840.064 488.775 792.457C487.109 764.845 495.333 736.181 515.441 715.303C540.584 689.187 585.06 664.761 589.122 624.806C593.095 597.927 510.131 579.596 514.861 530.474C517.47 498.419 552.939 476.948 547.933 453.281C542.552 427.843 537.675 407.374 533.84 396.055Z" stroke="white" stroke-width="1.19883"/>
<path d="M562.118 416.563C535.436 359.707 606.988 361.973 630.536 390.392C667.86 435.168 696.921 445.519 742.567 453.222C765.701 460.145 759.172 418.967 790.359 407.529C821.545 396.091 847.273 432.926 860.53 412.049C881.243 380.281 904.979 366.338 926.635 364.759C947.358 362.201 966.746 371.699 979.449 388C991.311 403.339 997.226 424.637 992.669 447.524C978.865 479.053 984.789 515.024 974.669 535.511C959.134 556.444 992.016 568.828 997.366 605.777C1002.72 642.726 968.462 647.399 986.621 671.368C1016.22 709.443 1028.93 737.284 1030.06 756.61C1035.43 799.751 986.091 803.155 937.527 780.17C908.577 767.078 885.615 754.151 865.863 745.63C840.815 730.995 827.158 772.956 802.826 778.095C761.185 786.028 755.292 743.978 726.079 768.956C713.712 779.257 700.354 791.066 685.754 804.711C650.596 835.595 620.457 845.045 597.637 843.255C552.711 848.327 524.38 810.01 521.793 768.825C520.507 744.755 527.781 719.812 545.331 701.598C568.696 677.333 607.686 655.408 610.491 618.386C613.72 594.647 542.234 578.168 545.848 535.326C547.644 507.093 577.582 487.918 573.143 466.926C568.403 444.508 564.743 426.472 562.118 416.563Z" stroke="white" stroke-width="1.19883"/>
<path d="M589.157 436.145C567.666 388.454 628.296 390.431 648.457 414.762C683.776 457.065 710.532 464.405 751.234 468.755C770.89 474.25 765.902 439.357 792.408 429.326C818.914 419.295 840.894 449.588 852.42 432.091C870.629 405.428 891.298 394.169 909.961 393.535C927.528 391.72 943.982 400.188 954.539 414.389C964.396 427.788 968.974 446.217 964.18 465.865C948.395 494.55 960.49 532.14 952.96 551.455C940.322 569.706 967.293 580.6 970.948 611.657C974.603 642.714 944.872 646.513 958.961 665.975C982.448 697.13 992.14 719.714 992.293 735.313C996.21 771.001 954.073 773.512 912.452 754.334C887.197 743.408 866.809 732.946 849.264 726.838C827.87 715.062 815.927 750.593 795.014 755.506C759.588 762.824 754.021 728.258 729.038 749.454C718.11 758.407 706.397 768.461 693.694 779.921C662.278 805.989 635.808 812.157 616.629 808.809C579.108 812.513 555.528 780.007 553.531 745.139C552.621 724.551 558.958 703.267 573.983 687.673C595.616 665.202 629.2 645.726 630.749 611.546C633.238 590.888 573.078 576.214 575.578 539.545C576.562 515.065 601.029 498.14 597.146 479.772C593.032 460.318 590.579 444.67 589.157 436.145Z" stroke="white" stroke-width="1.19883"/>
<path d="M617.067 455.558C600.784 417.037 650.343 418.751 667.085 438.999C700.346 478.848 724.733 483.186 760.389 484.197C776.52 488.27 773.061 459.669 794.812 451.059C816.563 442.449 834.761 466.198 844.515 452.091C860.155 430.55 877.698 421.99 893.322 422.311C907.688 421.249 921.172 428.692 929.57 440.797C937.407 452.258 940.65 467.816 935.647 484.217C917.945 510.049 936.213 549.278 931.308 567.419C921.614 582.979 942.614 592.393 944.588 617.55C946.562 642.707 921.431 645.617 931.429 660.57C948.767 684.804 955.432 702.126 954.625 713.992C957.104 742.217 922.272 743.814 887.686 728.427C866.179 719.659 848.411 711.656 833.114 707.957C815.418 699.036 805.246 728.122 787.808 732.8C758.693 739.487 753.44 712.412 732.767 729.811C723.313 737.407 713.281 745.698 702.516 754.964C674.939 776.194 652.207 779.06 636.712 774.142C606.692 776.457 587.898 749.759 586.471 721.219C585.922 704.117 591.289 686.5 603.74 673.536C623.57 652.87 651.647 635.862 651.908 604.524C653.635 586.952 604.94 574.057 606.292 543.571C606.442 522.848 625.364 508.187 622.032 492.443C618.541 475.954 617.288 462.696 617.067 455.558Z" stroke="white" stroke-width="1.19883"/>
<path d="M644.396 475.079C633.308 445.743 672.044 447.145 685.419 463.296C716.741 500.684 738.885 501.987 769.682 499.612C782.364 502.245 780.465 479.938 797.587 472.724C814.708 465.51 829.178 482.695 837.232 471.968C850.421 455.533 864.943 449.655 877.609 450.92C888.849 450.597 899.42 457.005 905.679 467.007C911.517 476.525 913.415 489.213 908.147 502.375C888.379 525.381 912.88 566.272 910.55 583.256C903.726 596.139 918.843 604.053 919.101 623.31C919.358 642.566 898.692 644.612 904.62 655.042C915.85 672.333 919.487 684.382 917.694 692.513C918.699 713.271 890.99 713.987 863.287 702.428C845.431 695.839 830.202 690.315 817.078 689.046C803.004 683 794.501 705.654 780.443 710.117C757.479 716.206 752.557 696.632 736.058 710.255L735.596 710.614C727.692 716.758 719.427 723.182 710.699 730.128C686.78 746.55 667.662 746.127 655.78 739.646C633.107 740.6 619.049 719.727 618.233 697.513C618.072 683.895 622.527 669.938 632.489 659.589C650.656 640.697 673.4 626.123 672.422 597.61C673.423 583.118 635.968 572.047 636.227 547.738C635.576 530.767 649.07 518.345 646.297 505.224C643.438 491.701 643.404 480.832 644.396 475.079Z" stroke="white" stroke-width="1.19883"/>
<path d="M672.608 495.635C666.771 475.612 694.391 476.719 704.314 488.705C733.499 523.474 753.24 521.75 778.948 516.019C788.087 517.208 787.742 501.296 800.097 495.522C812.451 489.748 823.101 500.299 829.386 493.006C840.008 481.759 851.394 478.6 861.005 480.809C869.033 481.233 876.616 486.584 880.699 494.44C884.502 501.976 885.051 511.735 879.569 521.594C857.897 541.658 888.493 584.028 888.773 599.773C884.886 609.915 894.01 616.303 892.567 629.571C891.124 642.838 875.08 643.998 876.901 649.862C881.952 660.141 882.545 666.865 879.785 671.222C879.328 684.419 858.954 684.234 838.331 676.539C824.254 672.15 811.672 669.121 800.816 670.279C790.466 667.127 783.719 683.24 773.149 687.459C756.516 692.907 751.94 680.92 739.755 690.695C733.189 695.569 726.456 700.322 719.499 705.182C699.432 716.706 684.072 712.987 675.889 704.966C660.739 704.541 651.504 689.581 651.283 673.794C651.498 663.724 654.994 653.493 662.381 645.814C678.735 628.792 695.96 616.733 693.722 591.179C693.976 579.835 668.037 570.617 667.176 552.597C665.711 539.456 673.661 529.341 671.455 518.903C669.237 508.406 670.412 499.976 672.608 495.635Z" stroke="white" stroke-width="1.19883"/>
<path d="M700.781 515.029C700.164 504.251 716.756 505.066 723.255 512.926C750.359 545.156 767.73 540.412 788.403 531.326C794.027 531.078 795.229 521.51 802.854 517.16C810.479 512.81 817.34 516.769 821.871 512.887C829.952 506.79 838.232 506.335 844.817 509.49C849.66 510.661 854.279 514.967 856.202 520.701C857.984 526.273 857.193 533.133 851.491 539.718C827.899 556.886 864.612 600.819 867.493 615.361C866.524 622.791 869.696 627.67 866.558 634.993C863.421 642.316 851.957 642.595 849.691 643.918C848.597 647.224 846.16 648.653 842.434 649.257C840.521 654.942 827.42 653.857 813.818 649.999C803.484 647.792 793.52 647.244 784.91 650.823C778.253 650.549 773.245 660.173 766.135 664.157C755.782 668.977 751.546 664.529 743.639 670.486C738.535 673.996 733.47 676.976 728.435 679.631C712.177 686.294 700.535 679.282 696.022 669.709C688.338 667.909 683.892 658.813 684.263 649.403C684.852 642.849 687.396 636.312 692.231 631.28C706.798 616.092 718.55 606.517 715.052 583.861C714.561 575.632 700.05 568.243 698.072 556.456C695.794 547.108 698.234 539.27 696.59 531.486C695.005 523.985 697.385 517.97 700.781 515.029Z" stroke="white" stroke-width="1.19883"/>
<path d="M375.157 446.897C332.693 217.218 600.994 229.587 783.671 321.209C890.863 370.066 978.316 273.303 1111.1 333.907C1243.88 394.511 1060.26 506.494 1262.94 602.9C1465.62 699.306 1321.58 992.851 1136.02 972.12C950.465 951.388 994.485 1009.71 793.751 1103.61C593.016 1197.51 302.931 992.463 403.42 829.266C503.909 666.069 421.124 695.528 375.157 446.897Z" stroke="white" stroke-width="1.2494"/>
<path d="M750.817 670.567C745.33 648.502 788.521 619.729 817.735 638.256C844.487 655.221 874.694 650.106 893.089 658.518C941.518 680.662 921.86 686.446 941.987 707.843C966.478 733.882 971.804 794.354 908.67 786.075C856.746 779.267 869.449 802.708 829.312 807.094C789.175 811.479 747.219 789.554 752.845 747.052C754.958 731.091 759.956 707.317 750.817 670.567Z" stroke="white" stroke-width="1.2494"/>
<path d="M409.446 466.161C370.344 255.356 618.18 263.984 786.906 348.962C886.785 394.92 969.034 306.488 1091.42 362.347C1216.53 419.455 1047.81 521.783 1233.9 611.37C1420.38 701.379 1289.92 973.736 1115.49 954.137C942.084 934.671 983.256 989.824 797.122 1075.59C610.987 1161.35 343.459 972.947 435.324 820.722C526.87 670.91 452.065 695.53 409.446 466.161Z" stroke="white" stroke-width="1.2494"/>
<path d="M443.733 485.423C407.993 293.492 635.365 298.38 790.139 376.713C882.706 419.772 959.75 339.671 1071.73 390.786C1189.18 444.397 1035.37 537.071 1204.86 619.839C1375.14 703.451 1258.26 954.62 1094.96 936.153C933.7 917.953 972.026 969.935 800.491 1047.56C628.956 1125.19 383.985 953.43 467.227 812.177C549.829 675.75 483.005 695.531 443.733 485.423Z" stroke="white" stroke-width="1.2494"/>
<path d="M478.023 504.688C445.644 331.631 652.552 332.779 793.375 404.467C878.629 444.626 950.469 372.857 1052.05 419.227C1161.83 469.342 1022.93 552.362 1175.82 628.311C1329.91 705.526 1226.6 935.506 1074.43 918.171C925.32 901.237 960.798 950.048 803.863 1019.54C646.928 1089.02 424.514 933.915 499.132 803.635C572.791 680.593 513.947 695.534 478.023 504.688Z" stroke="white" stroke-width="1.2494"/>
<path d="M512.308 523.952C483.29 369.769 669.734 367.177 796.606 432.22C874.547 469.48 941.183 406.043 1032.37 447.668C1134.48 494.287 1010.48 567.652 1146.78 636.782C1284.66 707.6 1194.94 916.392 1053.9 900.189C916.934 884.52 949.565 930.16 807.23 991.51C664.894 1052.86 465.038 914.4 531.031 795.092C595.747 685.435 544.883 695.536 512.308 523.952Z" stroke="white" stroke-width="1.2494"/>
<path d="M546.503 543.954C520.847 408.645 686.826 402.313 799.747 460.711C870.376 495.071 931.808 439.966 1012.59 476.846C1107.03 519.969 997.942 583.679 1117.65 645.991C1239.33 710.412 1163.19 898.015 1033.27 882.944C908.458 868.541 938.243 911.01 810.507 964.222C682.772 1017.43 505.472 895.622 562.842 787.286C618.614 691.014 575.73 696.276 546.503 543.954Z" stroke="white" stroke-width="1.2494"/>
<path d="M580.578 564.826C558.283 448.39 703.797 438.318 802.767 490.071C866.083 521.532 922.311 474.758 992.699 506.894C1079.47 546.52 985.284 600.576 1088.39 656.069C1193.88 714.092 1131.31 880.507 1012.53 866.569C899.862 853.432 926.799 892.729 813.663 937.803C700.528 982.878 545.785 877.713 594.531 780.349C641.36 697.463 606.457 697.886 580.578 564.826Z" stroke="white" stroke-width="1.2494"/>
<path d="M614.643 585.745C595.71 488.183 720.76 474.371 805.778 519.479C861.781 548.041 912.805 509.599 972.795 536.99C1051.9 573.12 972.616 617.521 1059.13 666.195C1148.42 717.821 1099.43 863.048 991.775 850.241C891.256 838.37 915.347 874.495 816.811 911.432C718.275 948.369 586.089 859.852 626.211 773.461C664.098 703.959 637.174 699.543 614.643 585.745Z" stroke="white" stroke-width="1.2494"/>
<path d="M648.704 606.732C633.132 528.045 737.717 510.493 808.785 548.955C857.475 574.618 903.294 544.507 952.885 567.153C1024.32 599.787 959.944 634.534 1029.86 676.389C1102.95 721.618 1067.54 845.656 971.016 833.981C882.646 823.376 903.889 856.33 819.953 885.13C736.017 913.929 626.389 842.06 657.887 766.641C686.83 710.524 667.886 701.268 648.704 606.732Z" stroke="white" stroke-width="1.2494"/>
<path d="M682.761 627.825C670.551 568.012 754.671 546.72 811.788 578.537C853.166 601.301 893.78 579.522 932.973 597.423C996.738 626.56 947.269 651.653 1000.59 686.688C1057.48 725.521 1035.65 828.37 950.254 817.828C874.032 808.488 892.429 838.271 823.093 858.933C753.756 879.594 666.685 824.373 689.559 759.926C709.559 717.195 698.596 703.099 682.761 627.825Z" stroke="white" stroke-width="1.2494"/>
<path d="M716.796 649.073C707.948 608.134 771.603 583.102 814.768 608.274C848.833 628.138 884.244 614.691 913.038 627.848C969.135 653.489 934.572 668.926 971.294 697.143C1011.98 729.579 1003.73 811.239 929.469 801.829C865.396 793.755 880.946 820.367 826.209 832.891C771.473 845.414 706.958 806.841 721.209 753.367C732.265 724.021 729.283 705.086 716.796 649.073Z" stroke="white" stroke-width="1.2494"/>
<path opacity="0.0526316" d="M357.685 1968.26C305.627 1988.88 209.187 2067.8 239.894 2218.5C278.277 2406.87 462.952 2511.31 533.361 2686.16C585.328 2815.21 634.716 3145.19 471.211 3299.25" stroke="#F6F5EF" stroke-width="1.45842"/>
<path opacity="0.105263" d="M460.001 1957.34C405.422 1973.13 299.306 2042.69 311.476 2194.66C326.688 2384.63 498.472 2504.52 547.364 2683.95C583.45 2816.38 592.253 3147.57 409.853 3285.57" stroke="#F6F5EF" stroke-width="1.45842"/>
<path opacity="0.157895" d="M561.769 1953.81C505.559 1964.58 391.516 2024.01 385.017 2175.57C376.893 2365.03 533.052 2499.03 559.711 2681.04C579.387 2815.39 547.604 3144.1 349.323 3264.51" stroke="#F6F5EF" stroke-width="1.45842"/>
<path opacity="0.210526" d="M1289.4 1990.89C696.864 1744 484.062 2011.79 458.984 2161.3C427.637 2348.2 567.399 2494.86 571.752 2677.5C574.965 2812.3 502.885 3135 289.812 3236.5" stroke="#F6F5EF" stroke-width="1.45842"/>
<path opacity="0.263158" d="M1249.42 2009.11C810.484 1821.59 576.503 2005.94 533.128 2151.75C478.91 2334 600.537 2491.69 582.5 2672.92C569.188 2806.68 457.639 3119.75 232.366 3201.22" stroke="#F6F5EF" stroke-width="1.45842"/>
<path opacity="0.315789" d="M1240.72 2018.98C964.938 1897.23 668.18 2006.47 606.982 2146.96C530.483 2322.58 632.643 2489.57 592.411 2667.4C562.717 2798.65 412.916 3098.67 177.91 3159.23" stroke="#F6F5EF" stroke-width="1.45842"/>
<path opacity="0.368421" d="M1237.76 2035.07C1023.54 1946.42 758.318 2013.24 679.964 2146.88C582.021 2313.93 663.592 2488.4 601.604 2660.88C555.852 2788.18 369.438 3071.87 127.271 3110.86" stroke="#F6F5EF" stroke-width="1.45842"/>
<path opacity="0.421053" d="M1262.83 2068.7C1070.2 1968.53 846.156 2026.03 751.502 2151.36C633.185 2308.03 693.271 2488.06 610.203 2653.3C548.892 2775.27 327.899 3039.52 81.2218 3056.51" stroke="#F6F5EF" stroke-width="1.45842"/>
<path opacity="0.473684" d="M1280.3 2098.6C1067.53 2036.84 930.945 2044.6 821.028 2160.25C683.632 2304.8 721.572 2488.42 618.332 2644.62C542.132 2759.91 288.981 3001.83 40.4975 2996.63" stroke="#F6F5EF" stroke-width="1.45842"/>
<path opacity="0.526316" d="M1198.51 2115.79C1146.67 2091.33 1011.99 2068.6 888.008 2173.29C733.036 2304.16 748.413 2489.34 626.129 2634.79C535.875 2742.14 253.336 2959.08 5.76913 2931.76" stroke="#F6F5EF" stroke-width="1.45842"/>
<path opacity="0.578947" d="M1269.16 2161.02C1220.37 2132.18 1088.62 2097.66 951.942 2190.25C781.088 2306 773.73 2490.73 633.739 2623.83C530.416 2722.06 221.578 2911.66 -22.362 2862.52" stroke="#F6F5EF" stroke-width="1.45842"/>
<path opacity="0.631579" d="M1332.79 2210.15C1287.59 2177.25 1160.23 2131.32 1012.34 2210.81C827.474 2310.17 797.459 2492.41 641.295 2611.7C526.034 2699.75 194.279 2859.92 -43.3588 2789.51" stroke="#F6F5EF" stroke-width="1.45842"/>
<path opacity="0.684211" d="M1388.93 2262.53C1347.82 2225.92 1226.24 2169.09 1068.76 2234.6C871.912 2316.49 819.566 2494.23 648.938 2598.42C523.002 2675.31 171.966 2804.3 -56.7651 2713.4" stroke="#F6F5EF" stroke-width="1.45842"/>
<path opacity="0.736842" d="M1437.2 2317.43C1400.63 2277.53 1286.16 2210.43 1120.82 2261.24C914.141 2324.76 840.037 2496.06 656.814 2583.99C521.581 2648.89 155.108 2745.29 -62.2074 2634.92" stroke="#F6F5EF" stroke-width="1.45842"/>
<path opacity="0.789474" d="M1477.28 2374.14C1445.65 2331.38 1339.55 2254.76 1168.16 2290.33C953.913 2334.78 858.86 2497.74 665.048 2568.45C522 2620.64 144.105 2683.41 -59.413 2554.79" stroke="#F6F5EF" stroke-width="1.45842"/>
<path opacity="0.842105" d="M1508.97 2431.88C1482.63 2386.75 1386.07 2301.48 1210.5 2321.41C991.034 2346.33 876.071 2499.12 673.794 2551.83C524.498 2590.73 139.321 2619.2 -48.1686 2473.8" stroke="#F6F5EF" stroke-width="1.45842"/>
<path opacity="0.894737" d="M1532.14 2490.08C1511.38 2442.79 1425.41 2349.23 1247.59 2353.36C1025.31 2358.52 891.695 2500.37 683.167 2534.75C529.258 2560.12 141.018 2553.97 -28.3859 2392.4" stroke="#F6F5EF" stroke-width="1.45842"/>
<path opacity="0.947368" d="M1546.67 2547.84C1531.72 2499.22 1457.29 2399.02 1279.19 2387.2C1056.56 2372.43 905.774 2500.75 693.308 2516.1C536.492 2527.43 149.493 2486.63 0.0511802 2311.72" stroke="#F6F5EF" stroke-width="1.45842"/>
<path d="M1552.82 2604.34C1543.84 2554.88 1481.75 2449.08 1305.3 2421.47C1084.73 2386.95 918.411 2500.47 704.307 2496.67C546.282 2493.86 164.714 2418.91 36.8509 2232.46" stroke="#F6F5EF" stroke-width="1.45842"/>
</g>
</svg>
