<svg aria-hidden="true" style="position:absolute;width:0;height:0;overflow:hidden" xmlns="http://www.w3.org/2000/svg">
    <defs>
        <symbol id="facebook-hover" viewBox="0 0 32 32">
            <path fill="none" stroke="#000" style="stroke: var(--color1, #000)" stroke-linejoin="miter"
                stroke-linecap="butt" stroke-miterlimit="4" stroke-width="0.8"
                d="M4.8 0.4h22.4c2.43 0 4.4 1.97 4.4 4.4v22.4c0 2.43-1.97 4.4-4.4 4.4h-22.4c-2.43 0-4.4-1.97-4.4-4.4v-22.4c0-2.43 1.97-4.4 4.4-4.4z">
            </path>
            <path
                d="M18.552 10.523h1.448v-2.417c-0.701-0.072-1.405-0.107-2.11-0.106-2.094 0-3.526 1.262-3.526 3.572v1.991h-2.364v2.706h2.364v6.931h2.833v-6.931h2.356l0.354-2.706h-2.71v-1.725c0-0.798 0.216-1.315 1.355-1.315z">
            </path>
        </symbol>
        <symbol id="facebook" viewBox="0 0 32 32">
            <path fill="none" stroke="#f6f5ef" style="stroke: var(--color2, #f6f5ef)" stroke-linejoin="miter"
                stroke-linecap="butt" stroke-miterlimit="4" stroke-width="0.8"
                d="M4.8 0.4h22.4c2.43 0 4.4 1.97 4.4 4.4v22.4c0 2.43-1.97 4.4-4.4 4.4h-22.4c-2.43 0-4.4-1.97-4.4-4.4v-22.4c0-2.43 1.97-4.4 4.4-4.4z">
            </path>
            <path fill="#f6f5ef" style="fill: var(--color2, #f6f5ef)"
                d="M18.552 10.523h1.448v-2.417c-0.701-0.072-1.405-0.107-2.11-0.106-2.094 0-3.526 1.262-3.526 3.572v1.991h-2.364v2.706h2.364v6.931h2.833v-6.931h2.356l0.354-2.706h-2.71v-1.725c0-0.798 0.216-1.315 1.355-1.315z">
            </path>
        </symbol>
        <symbol id="instagram-hover" viewBox="0 0 32 32">
            <path fill="none" stroke="#000" style="stroke: var(--color1, #000)" stroke-linejoin="miter"
                stroke-linecap="butt" stroke-miterlimit="4" stroke-width="0.8"
                d="M4.8 0.4h22.4c2.43 0 4.4 1.97 4.4 4.4v22.4c0 2.43-1.97 4.4-4.4 4.4h-22.4c-2.43 0-4.4-1.97-4.4-4.4v-22.4c0-2.43 1.97-4.4 4.4-4.4z">
            </path>
            <path
                d="M19.845 11.291c-0.171 0-0.338 0.051-0.48 0.146s-0.253 0.23-0.318 0.388c-0.065 0.158-0.082 0.332-0.049 0.499s0.116 0.322 0.236 0.442c0.121 0.121 0.275 0.203 0.442 0.236s0.341 0.016 0.499-0.049c0.158-0.065 0.293-0.176 0.388-0.318s0.146-0.309 0.146-0.48c0-0.229-0.091-0.449-0.253-0.611s-0.382-0.253-0.611-0.253zM23.157 13.034c-0.014-0.597-0.126-1.188-0.331-1.75-0.183-0.48-0.468-0.915-0.835-1.274-0.357-0.369-0.792-0.652-1.274-0.828-0.56-0.212-1.151-0.326-1.75-0.338-0.763-0.043-1.008-0.043-2.966-0.043s-2.203 0-2.966 0.043c-0.598 0.012-1.19 0.127-1.75 0.338-0.481 0.178-0.917 0.46-1.274 0.828-0.369 0.357-0.652 0.792-0.828 1.274-0.212 0.56-0.326 1.151-0.338 1.75-0.043 0.763-0.043 1.008-0.043 2.966s0 2.203 0.043 2.966c0.012 0.598 0.127 1.19 0.338 1.75 0.176 0.482 0.459 0.918 0.828 1.274 0.358 0.368 0.793 0.65 1.274 0.828 0.56 0.212 1.151 0.326 1.75 0.338 0.763 0.043 1.008 0.043 2.966 0.043s2.203 0 2.966-0.043c0.598-0.012 1.19-0.127 1.75-0.338 0.482-0.176 0.918-0.459 1.274-0.828 0.369-0.358 0.654-0.793 0.835-1.274 0.205-0.561 0.317-1.152 0.331-1.75 0-0.763 0.043-1.008 0.043-2.966s0-2.203-0.043-2.966zM21.861 18.88c-0.005 0.457-0.088 0.91-0.245 1.339-0.115 0.313-0.3 0.596-0.54 0.828-0.234 0.238-0.516 0.422-0.828 0.54-0.429 0.157-0.882 0.24-1.339 0.245-0.72 0.036-0.986 0.043-2.88 0.043s-2.16 0-2.88-0.043c-0.475 0.009-0.947-0.064-1.397-0.216-0.298-0.124-0.568-0.308-0.792-0.54-0.239-0.231-0.421-0.515-0.533-0.828-0.176-0.436-0.273-0.899-0.288-1.368 0-0.72-0.043-0.986-0.043-2.88s0-2.16 0.043-2.88c0.003-0.467 0.089-0.93 0.252-1.368 0.127-0.304 0.321-0.575 0.569-0.792 0.219-0.248 0.489-0.444 0.792-0.576 0.439-0.158 0.901-0.241 1.368-0.245 0.72 0 0.986-0.043 2.88-0.043s2.16 0 2.88 0.043c0.457 0.005 0.91 0.088 1.339 0.245 0.327 0.121 0.621 0.319 0.857 0.576 0.236 0.221 0.42 0.492 0.54 0.792 0.16 0.438 0.243 0.901 0.245 1.368 0.036 0.72 0.043 0.986 0.043 2.88s-0.007 2.16-0.043 2.88zM16 12.306c-0.73 0.001-1.444 0.219-2.050 0.626s-1.079 0.984-1.357 1.659c-0.278 0.675-0.351 1.417-0.207 2.133s0.496 1.374 1.013 1.889c0.517 0.516 1.175 0.867 1.891 1.009s1.459 0.068 2.133-0.211 1.251-0.753 1.656-1.36c0.406-0.607 0.622-1.321 0.622-2.051 0.001-0.486-0.094-0.967-0.28-1.416s-0.458-0.857-0.802-1.2c-0.344-0.343-0.752-0.615-1.202-0.8s-0.931-0.279-1.417-0.277zM16 18.398c-0.474 0-0.938-0.141-1.332-0.404s-0.702-0.638-0.883-1.076c-0.181-0.438-0.229-0.92-0.136-1.385s0.321-0.892 0.656-1.228 0.763-0.564 1.228-0.656c0.465-0.093 0.947-0.045 1.385 0.136s0.813 0.489 1.076 0.883c0.263 0.394 0.404 0.858 0.404 1.332 0 0.315-0.062 0.627-0.182 0.918s-0.297 0.555-0.52 0.778c-0.223 0.223-0.487 0.399-0.778 0.52s-0.603 0.182-0.918 0.182z">
            </path>
        </symbol>
        <symbol id="instagram" viewBox="0 0 32 32">
            <path fill="none" stroke="#f6f5ef" style="stroke: var(--color2, #f6f5ef)" stroke-linejoin="miter"
                stroke-linecap="butt" stroke-miterlimit="4" stroke-width="0.8"
                d="M4.8 0.4h22.4c2.43 0 4.4 1.97 4.4 4.4v22.4c0 2.43-1.97 4.4-4.4 4.4h-22.4c-2.43 0-4.4-1.97-4.4-4.4v-22.4c0-2.43 1.97-4.4 4.4-4.4z">
            </path>
            <path fill="#f6f5ef" style="fill: var(--color2, #f6f5ef)"
                d="M19.845 11.291c-0.171 0-0.338 0.051-0.48 0.146s-0.253 0.23-0.318 0.388c-0.065 0.158-0.082 0.332-0.049 0.499s0.116 0.322 0.236 0.442c0.121 0.121 0.275 0.203 0.442 0.236s0.341 0.016 0.499-0.049c0.158-0.065 0.293-0.176 0.388-0.318s0.146-0.309 0.146-0.48c0-0.229-0.091-0.449-0.253-0.611s-0.382-0.253-0.611-0.253zM23.157 13.034c-0.014-0.597-0.126-1.188-0.331-1.75-0.183-0.48-0.468-0.915-0.835-1.274-0.357-0.369-0.792-0.652-1.274-0.828-0.56-0.212-1.151-0.326-1.75-0.338-0.763-0.043-1.008-0.043-2.966-0.043s-2.203 0-2.966 0.043c-0.598 0.012-1.19 0.127-1.75 0.338-0.481 0.178-0.917 0.46-1.274 0.828-0.369 0.357-0.652 0.792-0.828 1.274-0.212 0.56-0.326 1.151-0.338 1.75-0.043 0.763-0.043 1.008-0.043 2.966s0 2.203 0.043 2.966c0.012 0.598 0.127 1.19 0.338 1.75 0.176 0.482 0.459 0.918 0.828 1.274 0.358 0.368 0.793 0.65 1.274 0.828 0.56 0.212 1.151 0.326 1.75 0.338 0.763 0.043 1.008 0.043 2.966 0.043s2.203 0 2.966-0.043c0.598-0.012 1.19-0.127 1.75-0.338 0.482-0.176 0.918-0.459 1.274-0.828 0.369-0.358 0.654-0.793 0.835-1.274 0.205-0.561 0.317-1.152 0.331-1.75 0-0.763 0.043-1.008 0.043-2.966s0-2.203-0.043-2.966zM21.861 18.88c-0.005 0.457-0.088 0.91-0.245 1.339-0.115 0.313-0.3 0.596-0.54 0.828-0.234 0.238-0.516 0.422-0.828 0.54-0.429 0.157-0.882 0.24-1.339 0.245-0.72 0.036-0.986 0.043-2.88 0.043s-2.16 0-2.88-0.043c-0.475 0.009-0.947-0.064-1.397-0.216-0.298-0.124-0.568-0.308-0.792-0.54-0.239-0.231-0.421-0.515-0.533-0.828-0.176-0.436-0.273-0.899-0.288-1.368 0-0.72-0.043-0.986-0.043-2.88s0-2.16 0.043-2.88c0.003-0.467 0.089-0.93 0.252-1.368 0.127-0.304 0.321-0.575 0.569-0.792 0.219-0.248 0.489-0.444 0.792-0.576 0.439-0.158 0.901-0.241 1.368-0.245 0.72 0 0.986-0.043 2.88-0.043s2.16 0 2.88 0.043c0.457 0.005 0.91 0.088 1.339 0.245 0.327 0.121 0.621 0.319 0.857 0.576 0.236 0.221 0.42 0.492 0.54 0.792 0.16 0.438 0.243 0.901 0.245 1.368 0.036 0.72 0.043 0.986 0.043 2.88s-0.007 2.16-0.043 2.88zM16 12.306c-0.73 0.001-1.444 0.219-2.050 0.626s-1.079 0.984-1.357 1.659c-0.278 0.675-0.351 1.417-0.207 2.133s0.496 1.374 1.013 1.889c0.517 0.516 1.175 0.867 1.891 1.009s1.459 0.068 2.133-0.211 1.251-0.753 1.656-1.36c0.406-0.607 0.622-1.321 0.622-2.051 0.001-0.486-0.094-0.967-0.28-1.416s-0.458-0.857-0.802-1.2c-0.344-0.343-0.752-0.615-1.202-0.8s-0.931-0.279-1.417-0.277zM16 18.398c-0.474 0-0.938-0.141-1.332-0.404s-0.702-0.638-0.883-1.076c-0.181-0.438-0.229-0.92-0.136-1.385s0.321-0.892 0.656-1.228 0.763-0.564 1.228-0.656c0.465-0.093 0.947-0.045 1.385 0.136s0.813 0.489 1.076 0.883c0.263 0.394 0.404 0.858 0.404 1.332 0 0.315-0.062 0.627-0.182 0.918s-0.297 0.555-0.52 0.778c-0.223 0.223-0.487 0.399-0.778 0.52s-0.603 0.182-0.918 0.182z">
            </path>
        </symbol>
        <symbol id="youtube-hover" viewBox="0 0 32 32">
            <path fill="none" stroke="#000" style="stroke: var(--color1, #000)" stroke-linejoin="miter"
                stroke-linecap="butt" stroke-miterlimit="4" stroke-width="0.8"
                d="M4.8 0.4h22.4c2.43 0 4.4 1.97 4.4 4.4v22.4c0 2.43-1.97 4.4-4.4 4.4h-22.4c-2.43 0-4.4-1.97-4.4-4.4v-22.4c0-2.43 1.97-4.4 4.4-4.4z">
            </path>
            <path
                d="M20.532 10.5c-0.748-0.044-2.288-0.088-4.62-0.088h-0.308c-2.244 0-3.74 0.044-4.488 0.132-1.012 0.088-1.716 0.352-2.112 0.704-0.352 0.308-0.616 0.88-0.704 1.628-0.044 0.484-0.088 1.496-0.088 3.036v0.22c0 1.452 0.044 2.464 0.132 2.948 0.132 0.704 0.352 1.232 0.792 1.54 0.44 0.352 1.188 0.572 2.244 0.66 0.748 0.044 2.288 0.088 4.62 0.088h0.308c2.244 0 3.74-0.044 4.488-0.132 1.012-0.088 1.716-0.352 2.112-0.704 0.352-0.308 0.616-0.88 0.704-1.628 0.044-0.484 0.088-1.496 0.088-3.036v-0.22c0-1.452-0.044-2.464-0.132-2.948-0.132-0.704-0.352-1.232-0.792-1.54-0.44-0.352-1.188-0.572-2.244-0.66zM18.816 15.912l-4.84 2.904v-5.808l4.84 2.904z">
            </path>
        </symbol>
        <symbol id="youtube" viewBox="0 0 32 32">
            <path fill="none" stroke="#f6f5ef" style="stroke: var(--color2, #f6f5ef)" stroke-linejoin="miter"
                stroke-linecap="butt" stroke-miterlimit="4" stroke-width="0.8"
                d="M4.8 0.4h22.4c2.43 0 4.4 1.97 4.4 4.4v22.4c0 2.43-1.97 4.4-4.4 4.4h-22.4c-2.43 0-4.4-1.97-4.4-4.4v-22.4c0-2.43 1.97-4.4 4.4-4.4z">
            </path>
            <path fill="#f6f5ef" style="fill: var(--color2, #f6f5ef)"
                d="M20.532 10.5c-0.748-0.044-2.288-0.088-4.62-0.088h-0.308c-2.244 0-3.74 0.044-4.488 0.132-1.012 0.088-1.716 0.352-2.112 0.704-0.352 0.308-0.616 0.88-0.704 1.628-0.044 0.484-0.088 1.496-0.088 3.036v0.22c0 1.452 0.044 2.464 0.132 2.948 0.132 0.704 0.352 1.232 0.792 1.54 0.44 0.352 1.188 0.572 2.244 0.66 0.748 0.044 2.288 0.088 4.62 0.088h0.308c2.244 0 3.74-0.044 4.488-0.132 1.012-0.088 1.716-0.352 2.112-0.704 0.352-0.308 0.616-0.88 0.704-1.628 0.044-0.484 0.088-1.496 0.088-3.036v-0.22c0-1.452-0.044-2.464-0.132-2.948-0.132-0.704-0.352-1.232-0.792-1.54-0.44-0.352-1.188-0.572-2.244-0.66zM18.816 15.912l-4.84 2.904v-5.808l4.84 2.904z">
            </path>
        </symbol>
        <symbol id="arrow-left" viewBox="0 0 58 32">
            <path fill="#f6f5ef" style="fill:var(--color1, #f6f5ef)"
                d="M17.6 2.144 0 16l17.6 13.856V18.4h40v-4.8h-40V2.144z" />
        </symbol>
        <symbol id="arrow-right" viewBox="0 0 58 32">
            <path fill="#f6f5ef" style="fill:var(--color1, #f6f5ef)"
                d="M40 2.144 57.6 16 40 29.856V18.4H0v-4.8h40V2.144z" />
        </symbol>
        <symbol id="arrow-up" viewBox="0 0 17 32">
            <path fill="#f6f5ef" style="fill:var(--color1, #f6f5ef)"
                d="M0 9.778 8.533 0l8.533 9.778h-7.055V32H7.055V9.778H0z" />
        </symbol>
        <symbol id="close" viewBox="0 0 32 32">
            <path fill="none" stroke="#f6f5ef" style="stroke:var(--color1, #f6f5ef)" stroke-linejoin="round"
                stroke-linecap="round" stroke-width="1.733" d="M24 8 8 24M8 8l16 16" />
        </symbol>
        <symbol id="menu" viewBox="0 0 32 32">
            <path fill="#f6f5ef" style="fill:var(--color1, #f6f5ef)"
                d="M2.667 7.993c0-.733.595-1.327 1.327-1.327h10.68a1.326 1.326 0 0 1 0 2.654H3.994a1.326 1.326 0 0 1-1.327-1.327zm0 8.007c0-.733.595-1.327 1.327-1.327h24.013a1.326 1.326 0 0 1 0 2.654H3.994A1.326 1.326 0 0 1 2.667 16zm1.326 6.68a1.326 1.326 0 0 0 0 2.654h16.013a1.326 1.326 0 0 0 0-2.654H3.993z" />
        </symbol>
        <symbol id="logo" viewBox="0 0 23 23">
            <mask id="mask0_3500_21" style="mask-type:alpha" maskUnits="userSpaceOnUse" x="0" y="0" width="23"
                height="23">
                <path
                    d="M0 18.4153L5.18842 23H20.4087L22.5879 19.9381L0.00191667 18.4153H0ZM13.4023 0V18.2783L20.4068 18.7603L13.4023 0ZM12.4478 3.08008L2.32779 17.481L12.4478 18.1642V3.08008Z"
                    fill="black" />
            </mask>
            <g mask="url(#mask0_3500_21)">
                <path d="M0 0H23V23H0V0Z" fill="url(#paint0_linear_3500_21)" />
            </g>
            <defs>
                <linearGradient id="paint0_linear_3500_21" x1="9.79396" y1="3.48665e-06" x2="21.5409" y2="0.444325"
                    gradientUnits="userSpaceOnUse">
                    <stop stop-color="#BEC7C2" />
                    <stop offset="1" stop-color="#A1B5BA" />
                </linearGradient>
            </defs>
        </symbol>
    </defs>
</svg>