<svg aria-hidden="true" style="position:absolute;width:0;height:0;overflow:hidden" xmlns="http://www.w3.org/2000/svg">
    <defs>
        <symbol id="facebook" viewBox="0 0 32 32">
            <path fill="none" stroke="#f6f5ef" style="stroke:var(--color1, #f6f5ef)" stroke-width=".8"
                d="M4.8.4h22.4a4.4 4.4 0 0 1 4.4 4.4v22.4a4.4 4.4 0 0 1-4.4 4.4H4.8a4.4 4.4 0 0 1-4.4-4.4V4.8A4.4 4.4 0 0 1 4.8.4z" />
            <path fill="#f6f5ef" style="fill:var(--color1, #f6f5ef)"
                d="M18.552 10.523H20V8.106A20.364 20.364 0 0 0 17.89 8c-2.094 0-3.526 1.262-3.526 3.572v1.991H12v2.706h2.364V23.2h2.833v-6.931h2.356l.354-2.706h-2.71v-1.725c0-.798.216-1.315 1.355-1.315z" />
        </symbol>
        <symbol id="instagram" viewBox="0 0 32 32">
            <path fill="none" stroke="#f6f5ef" style="stroke:var(--color1, #f6f5ef)" stroke-width=".8"
                d="M4.8.4h22.4a4.4 4.4 0 0 1 4.4 4.4v22.4a4.4 4.4 0 0 1-4.4 4.4H4.8a4.4 4.4 0 0 1-4.4-4.4V4.8A4.4 4.4 0 0 1 4.8.4z" />
            <path fill="#f6f5ef" style="fill:var(--color1, #f6f5ef)"
                d="M19.845 11.291a.863.863 0 1 0 0 1.727.863.863 0 0 0 0-1.727zm3.312 1.743a5.482 5.482 0 0 0-.331-1.75 3.553 3.553 0 0 0-.835-1.274 3.39 3.39 0 0 0-1.274-.828 5.235 5.235 0 0 0-1.75-.338c-.763-.043-1.008-.043-2.966-.043s-2.203 0-2.966.043a5.265 5.265 0 0 0-1.75.338c-.481.178-.917.46-1.274.828a3.39 3.39 0 0 0-.828 1.274 5.235 5.235 0 0 0-.338 1.75c-.043.763-.043 1.008-.043 2.966s0 2.203.043 2.966c.012.598.127 1.19.338 1.75.176.482.459.918.828 1.274.358.368.793.65 1.274.828.56.212 1.151.326 1.75.338.763.043 1.008.043 2.966.043s2.203 0 2.966-.043a5.265 5.265 0 0 0 1.75-.338 3.382 3.382 0 0 0 1.274-.828c.369-.358.654-.793.835-1.274a5.471 5.471 0 0 0 .331-1.75c0-.763.043-1.008.043-2.966s0-2.203-.043-2.966zm-1.296 5.846c-.005.457-.088.91-.245 1.339-.115.313-.3.596-.54.828a2.303 2.303 0 0 1-.828.54c-.429.157-.882.24-1.339.245-.72.036-.986.043-2.88.043s-2.16 0-2.88-.043a4.119 4.119 0 0 1-1.397-.216 2.364 2.364 0 0 1-.792-.54 2.166 2.166 0 0 1-.533-.828 3.995 3.995 0 0 1-.288-1.368c0-.72-.043-.986-.043-2.88s0-2.16.043-2.88c.003-.467.089-.93.252-1.368.127-.304.321-.575.569-.792.219-.248.489-.444.792-.576a4.143 4.143 0 0 1 1.368-.245c.72 0 .986-.043 2.88-.043s2.16 0 2.88.043c.457.005.91.088 1.339.245.327.121.621.319.857.576.236.221.42.492.54.792.16.438.243.901.245 1.368.036.72.043.986.043 2.88s-.007 2.16-.043 2.88zM16 12.306a3.687 3.687 0 0 0-3.407 2.285 3.69 3.69 0 0 0 .806 4.022A3.694 3.694 0 1 0 16 12.307zm0 6.092a2.4 2.4 0 0 1-2.215-1.48 2.396 2.396 0 0 1 1.748-3.269 2.396 2.396 0 0 1 1.385 4.567 2.39 2.39 0 0 1-.918.182z" />
        </symbol>
        <symbol id="youtube" viewBox="0 0 32 32">
            <path fill="none" stroke="#f6f5ef" style="stroke:var(--color1, #f6f5ef)" stroke-width=".8"
                d="M4.8.4h22.4a4.4 4.4 0 0 1 4.4 4.4v22.4a4.4 4.4 0 0 1-4.4 4.4H4.8a4.4 4.4 0 0 1-4.4-4.4V4.8A4.4 4.4 0 0 1 4.8.4z" />
            <path fill="#f6f5ef" style="fill:var(--color1, #f6f5ef)"
                d="M20.532 10.5c-.748-.044-2.288-.088-4.62-.088h-.308c-2.244 0-3.74.044-4.488.132-1.012.088-1.716.352-2.112.704-.352.308-.616.88-.704 1.628-.044.484-.088 1.496-.088 3.036v.22c0 1.452.044 2.464.132 2.948.132.704.352 1.232.792 1.54.44.352 1.188.572 2.244.66.748.044 2.288.088 4.62.088h.308c2.244 0 3.74-.044 4.488-.132 1.012-.088 1.716-.352 2.112-.704.352-.308.616-.88.704-1.628.044-.484.088-1.496.088-3.036v-.22c0-1.452-.044-2.464-.132-2.948-.132-.704-.352-1.232-.792-1.54-.44-.352-1.188-.572-2.244-.66zm-1.716 5.412-4.84 2.904v-5.808l4.84 2.904z" />
        </symbol>
        <symbol id="facebook-gradient" viewBox="0 0 40 40">
            <rect x=".5" y=".5" width="39" height="39" rx="5.5" stroke="url(#a)" />
            <path
                d="M23.19 13.154H25v-3.021A25.47 25.47 0 0 0 22.363 10c-2.618 0-4.408 1.577-4.408 4.465v2.489H15v3.382h2.955V29h3.542v-8.664h2.945l.442-3.382h-3.387v-2.157c0-.997.27-1.643 1.694-1.643Z"
                fill="url(#b)" />
            <defs>
                <linearGradient id="a" x1="17.033" y1="0" x2="37.462" y2=".773" gradientUnits="userSpaceOnUse">
                    <stop stop-color="#BEC7C2" />
                    <stop offset="1" stop-color="#A1B5BA" />
                </linearGradient>
                <linearGradient id="b" x1="19.258" y1="10" x2="24.371" y2="10.102" gradientUnits="userSpaceOnUse">
                    <stop stop-color="#BEC7C2" />
                    <stop offset="1" stop-color="#A1B5BA" />
                </linearGradient>
            </defs>
        </symbol>
        <symbol id="instagram-gradient" viewBox="0 0 40 40">
            <rect x=".5" y=".5" width="39" height="39" rx="5.5" stroke="url(#a)" />
            <path
                d="M24.806 14.114a1.08 1.08 0 1 0 0 2.16 1.08 1.08 0 0 0 0-2.16Zm4.14 2.178a6.832 6.832 0 0 0-.414-2.187 4.446 4.446 0 0 0-1.044-1.593 4.231 4.231 0 0 0-1.593-1.035 6.569 6.569 0 0 0-2.187-.423C22.754 11 22.448 11 20 11c-2.448 0-2.754 0-3.708.054a6.569 6.569 0 0 0-2.187.423 4.302 4.302 0 0 0-1.593 1.035c-.461.446-.815.99-1.035 1.593-.264.7-.408 1.44-.423 2.187C11 17.246 11 17.552 11 20c0 2.448 0 2.754.054 3.708.015.748.159 1.487.423 2.187.22.603.574 1.147 1.035 1.593.447.46.992.813 1.593 1.035.7.265 1.44.407 2.187.423C17.246 29 17.552 29 20 29c2.448 0 2.754 0 3.708-.054a6.569 6.569 0 0 0 2.187-.423 4.231 4.231 0 0 0 1.593-1.035 4.365 4.365 0 0 0 1.044-1.593c.257-.701.396-1.44.414-2.187 0-.954.054-1.26.054-3.708 0-2.448 0-2.754-.054-3.708Zm-1.62 7.308a5.05 5.05 0 0 1-.306 1.674 2.754 2.754 0 0 1-.675 1.035 2.87 2.87 0 0 1-1.035.675 5.05 5.05 0 0 1-1.674.306c-.9.045-1.233.054-3.6.054s-2.7 0-3.6-.054a5.156 5.156 0 0 1-1.746-.27 2.942 2.942 0 0 1-.99-.675 2.7 2.7 0 0 1-.666-1.035 4.987 4.987 0 0 1-.36-1.71c0-.9-.054-1.233-.054-3.6s0-2.7.054-3.6c.004-.584.11-1.163.315-1.71.158-.38.402-.718.711-.99.273-.31.611-.555.99-.72a5.157 5.157 0 0 1 1.71-.306c.9 0 1.233-.054 3.6-.054s2.7 0 3.6.054a5.05 5.05 0 0 1 1.674.306c.409.152.776.399 1.071.72.295.277.525.615.675.99.2.548.304 1.127.306 1.71.045.9.054 1.233.054 3.6s-.009 2.7-.054 3.6ZM20 15.383A4.617 4.617 0 1 0 24.626 20 4.607 4.607 0 0 0 20 15.383Zm0 7.614a2.997 2.997 0 1 1 0-5.993 2.997 2.997 0 0 1 0 5.993Z"
                fill="url(#b)" />
            <defs>
                <linearGradient id="a" x1="17.033" y1="0" x2="37.462" y2=".773" gradientUnits="userSpaceOnUse">
                    <stop stop-color="#BEC7C2" />
                    <stop offset="1" stop-color="#A1B5BA" />
                </linearGradient>
                <linearGradient id="b" x1="18.665" y1="11" x2="27.858" y2="11.348" gradientUnits="userSpaceOnUse">
                    <stop stop-color="#BEC7C2" />
                    <stop offset="1" stop-color="#A1B5BA" />
                </linearGradient>
            </defs>
        </symbol>
        <symbol id="youtube-gradient" viewBox="0 0 40 40">
            <rect x=".5" y=".5" width="39" height="39" rx="5.5" stroke="url(#a)" />
            <path fill-rule="evenodd" clip-rule="evenodd"
                d="M25.665 13.125c-.935-.055-2.86-.11-5.775-.11h-.385c-2.805 0-4.675.055-5.61.165-1.265.11-2.145.44-2.64.88-.44.385-.77 1.1-.88 2.035-.055.605-.11 1.87-.11 3.795v.275c0 1.815.055 3.08.165 3.685.165.88.44 1.54.99 1.925.55.44 1.485.715 2.805.825.935.055 2.86.11 5.775.11h.385c2.805 0 4.675-.055 5.61-.165 1.265-.11 2.145-.44 2.64-.88.44-.385.77-1.1.88-2.035.055-.605.11-1.87.11-3.795v-.275c0-1.815-.055-3.08-.165-3.685-.165-.88-.44-1.54-.99-1.925-.55-.44-1.485-.715-2.805-.825ZM23.52 19.89l-6.05 3.63v-7.26l6.05 3.63Z"
                fill="url(#b)" />
            <defs>
                <linearGradient id="a" x1="17.033" y1="0" x2="37.462" y2=".773" gradientUnits="userSpaceOnUse">
                    <stop stop-color="#BEC7C2" />
                    <stop offset="1" stop-color="#A1B5BA" />
                </linearGradient>
                <linearGradient id="b" x1="18.509" y1="13.015" x2="28.383" y2="13.543" gradientUnits="userSpaceOnUse">
                    <stop stop-color="#BEC7C2" />
                    <stop offset="1" stop-color="#A1B5BA" />
                </linearGradient>
            </defs>
        </symbol>
        <symbol id="arrow-left" viewBox="0 0 58 32">
            <path fill="#f6f5ef" style="fill:var(--color1, #f6f5ef)"
                d="M17.6 2.144 0 16l17.6 13.856V18.4h40v-4.8h-40V2.144z" />
        </symbol>
        <symbol id="arrow-right" viewBox="0 0 58 32">
            <path fill="#f6f5ef" style="fill:var(--color1, #f6f5ef)"
                d="M40 2.144 57.6 16 40 29.856V18.4H0v-4.8h40V2.144z" />
        </symbol>
        <symbol id="arrow-up" viewBox="0 0 17 32">
            <path fill="#f6f5ef" style="fill:var(--color1, #f6f5ef)"
                d="M0 9.778 8.533 0l8.533 9.778h-7.055V32H7.055V9.778H0z" />
        </symbol>
        <symbol id="close" viewBox="0 0 32 32">
            <path fill="none" stroke="#f6f5ef" style="stroke:var(--color1, #f6f5ef)" stroke-linejoin="round"
                stroke-linecap="round" stroke-width="1.733" d="M24 8 8 24M8 8l16 16" />
        </symbol>
        <symbol id="menu" viewBox="0 0 32 32">
            <path fill="#f6f5ef" style="fill:var(--color1, #f6f5ef)"
                d="M2.667 7.993c0-.733.595-1.327 1.327-1.327h10.68a1.326 1.326 0 0 1 0 2.654H3.994a1.326 1.326 0 0 1-1.327-1.327zm0 8.007c0-.733.595-1.327 1.327-1.327h24.013a1.326 1.326 0 0 1 0 2.654H3.994A1.326 1.326 0 0 1 2.667 16zm1.326 6.68a1.326 1.326 0 0 0 0 2.654h16.013a1.326 1.326 0 0 0 0-2.654H3.993z" />
        </symbol>
        <symbol id="logo" viewBox="0 0 23 23">
            <mask id="mask0_3500_21" style="mask-type:alpha" maskUnits="userSpaceOnUse" x="0" y="0" width="23"
                height="23">
                <path
                    d="M0 18.415 5.188 23h15.22l2.18-3.062L.002 18.415H0ZM13.402 0v18.278l7.005.482L13.402 0Zm-.954 3.08L2.328 17.481l10.12.683V3.08Z" />
            </mask>
            <g mask="url(#mask0_3500_21)">
                <path d="M0 0h23v23H0V0Z" fill="url(#paint0_linear_3500_21)" />
            </g>
            <defs>
                <linearGradient id="paint0_linear_3500_21" x1="9.794" y1="0" x2="21.541" y2=".444"
                    gradientUnits="userSpaceOnUse">
                    <stop stop-color="#BEC7C2" />
                    <stop offset="1" stop-color="#A1B5BA" />
                </linearGradient>
            </defs>
        </symbol>
        <!-- test -->
        <symbol id="u_facebook-f" viewBox="0 0 32 32">
            <path fill="none" stroke="#f6f5ef" style="stroke: var(--color1, #f6f5ef)" stroke-linejoin="miter"
                stroke-linecap="butt" stroke-miterlimit="4" stroke-width="0.8"
                d="M4.8 0.4h22.4c2.43 0 4.4 1.97 4.4 4.4v22.4c0 2.43-1.97 4.4-4.4 4.4h-22.4c-2.43 0-4.4-1.97-4.4-4.4v-22.4c0-2.43 1.97-4.4 4.4-4.4z">
            </path>
            <path fill="#f6f5ef" style="fill: var(--color1, #f6f5ef)"
                d="M18.552 10.523h1.448v-2.417c-0.701-0.072-1.405-0.107-2.11-0.106-2.094 0-3.526 1.262-3.526 3.572v1.991h-2.364v2.706h2.364v6.931h2.833v-6.931h2.356l0.354-2.706h-2.71v-1.725c0-0.798 0.216-1.315 1.355-1.315z">
            </path>
        </symbol>
        <symbol id="u_instagram" viewBox="0 0 32 32">
            <path fill="none" stroke="#f6f5ef" style="stroke: var(--color1, #f6f5ef)" stroke-linejoin="miter"
                stroke-linecap="butt" stroke-miterlimit="4" stroke-width="0.8"
                d="M4.8 0.4h22.4c2.43 0 4.4 1.97 4.4 4.4v22.4c0 2.43-1.97 4.4-4.4 4.4h-22.4c-2.43 0-4.4-1.97-4.4-4.4v-22.4c0-2.43 1.97-4.4 4.4-4.4z">
            </path>
            <path fill="#f6f5ef" style="fill: var(--color1, #f6f5ef)"
                d="M19.845 11.291c-0.171 0-0.338 0.051-0.48 0.146s-0.253 0.23-0.318 0.388c-0.065 0.158-0.082 0.332-0.049 0.499s0.116 0.322 0.236 0.442c0.121 0.121 0.275 0.203 0.442 0.236s0.341 0.016 0.499-0.049c0.158-0.065 0.293-0.176 0.388-0.318s0.146-0.309 0.146-0.48c0-0.229-0.091-0.449-0.253-0.611s-0.382-0.253-0.611-0.253zM23.157 13.034c-0.014-0.597-0.126-1.188-0.331-1.75-0.183-0.48-0.468-0.915-0.835-1.274-0.357-0.369-0.792-0.652-1.274-0.828-0.56-0.212-1.151-0.326-1.75-0.338-0.763-0.043-1.008-0.043-2.966-0.043s-2.203 0-2.966 0.043c-0.598 0.012-1.19 0.127-1.75 0.338-0.481 0.178-0.917 0.46-1.274 0.828-0.369 0.357-0.652 0.792-0.828 1.274-0.212 0.56-0.326 1.151-0.338 1.75-0.043 0.763-0.043 1.008-0.043 2.966s0 2.203 0.043 2.966c0.012 0.598 0.127 1.19 0.338 1.75 0.176 0.482 0.459 0.918 0.828 1.274 0.358 0.368 0.793 0.65 1.274 0.828 0.56 0.212 1.151 0.326 1.75 0.338 0.763 0.043 1.008 0.043 2.966 0.043s2.203 0 2.966-0.043c0.598-0.012 1.19-0.127 1.75-0.338 0.482-0.176 0.918-0.459 1.274-0.828 0.369-0.358 0.654-0.793 0.835-1.274 0.205-0.561 0.317-1.152 0.331-1.75 0-0.763 0.043-1.008 0.043-2.966s0-2.203-0.043-2.966zM21.861 18.88c-0.005 0.457-0.088 0.91-0.245 1.339-0.115 0.313-0.3 0.596-0.54 0.828-0.234 0.238-0.516 0.422-0.828 0.54-0.429 0.157-0.882 0.24-1.339 0.245-0.72 0.036-0.986 0.043-2.88 0.043s-2.16 0-2.88-0.043c-0.475 0.009-0.947-0.064-1.397-0.216-0.298-0.124-0.568-0.308-0.792-0.54-0.239-0.231-0.421-0.515-0.533-0.828-0.176-0.436-0.273-0.899-0.288-1.368 0-0.72-0.043-0.986-0.043-2.88s0-2.16 0.043-2.88c0.003-0.467 0.089-0.93 0.252-1.368 0.127-0.304 0.321-0.575 0.569-0.792 0.219-0.248 0.489-0.444 0.792-0.576 0.439-0.158 0.901-0.241 1.368-0.245 0.72 0 0.986-0.043 2.88-0.043s2.16 0 2.88 0.043c0.457 0.005 0.91 0.088 1.339 0.245 0.327 0.121 0.621 0.319 0.857 0.576 0.236 0.221 0.42 0.492 0.54 0.792 0.16 0.438 0.243 0.901 0.245 1.368 0.036 0.72 0.043 0.986 0.043 2.88s-0.007 2.16-0.043 2.88zM16 12.306c-0.73 0.001-1.444 0.219-2.050 0.626s-1.079 0.984-1.357 1.659c-0.278 0.675-0.351 1.417-0.207 2.133s0.496 1.374 1.013 1.889c0.517 0.516 1.175 0.867 1.891 1.009s1.459 0.068 2.133-0.211 1.251-0.753 1.656-1.36c0.406-0.607 0.622-1.321 0.622-2.051 0.001-0.486-0.094-0.967-0.28-1.416s-0.458-0.857-0.802-1.2c-0.344-0.343-0.752-0.615-1.202-0.8s-0.931-0.279-1.417-0.277zM16 18.398c-0.474 0-0.938-0.141-1.332-0.404s-0.702-0.638-0.883-1.076c-0.181-0.438-0.229-0.92-0.136-1.385s0.321-0.892 0.656-1.228 0.763-0.564 1.228-0.656c0.465-0.093 0.947-0.045 1.385 0.136s0.813 0.489 1.076 0.883c0.263 0.394 0.404 0.858 0.404 1.332 0 0.315-0.062 0.627-0.182 0.918s-0.297 0.555-0.52 0.778c-0.223 0.223-0.487 0.399-0.778 0.52s-0.603 0.182-0.918 0.182z">
            </path>
        </symbol>
        <symbol id="u_youtube" viewBox="0 0 32 32">
            <path fill="none" stroke="#f6f5ef" style="stroke: var(--color1, #f6f5ef)" stroke-linejoin="miter"
                stroke-linecap="butt" stroke-miterlimit="4" stroke-width="0.8"
                d="M4.8 0.4h22.4c2.43 0 4.4 1.97 4.4 4.4v22.4c0 2.43-1.97 4.4-4.4 4.4h-22.4c-2.43 0-4.4-1.97-4.4-4.4v-22.4c0-2.43 1.97-4.4 4.4-4.4z">
            </path>
            <path fill="#f6f5ef" style="fill: var(--color1, #f6f5ef)"
                d="M20.12 11c-0.68-0.040-2.080-0.080-4.2-0.080h-0.28c-2.040 0-3.4 0.040-4.080 0.12-0.92 0.080-1.56 0.32-1.92 0.64-0.32 0.28-0.56 0.8-0.64 1.48-0.040 0.44-0.080 1.36-0.080 2.76v0.2c0 1.32 0.040 2.24 0.12 2.68 0.12 0.64 0.32 1.12 0.72 1.4 0.4 0.32 1.080 0.52 2.040 0.6 0.68 0.040 2.080 0.080 4.2 0.080h0.28c2.040 0 3.4-0.040 4.080-0.12 0.92-0.080 1.56-0.32 1.92-0.64 0.32-0.28 0.56-0.8 0.64-1.48 0.040-0.44 0.080-1.36 0.080-2.76v-0.2c0-1.32-0.040-2.24-0.12-2.68-0.12-0.64-0.32-1.12-0.72-1.4-0.4-0.32-1.080-0.52-2.040-0.6zM18.56 15.92l-4.4 2.64v-5.28l4.4 2.64z">
            </path>
        </symbol>
    </defs>
</svg>