<svg width="1001" height="984" viewBox="0 0 1001 984" fill="none" xmlns="http://www.w3.org/2000/svg">
<path d="M96.1566 218.897C53.693 -10.782 321.994 1.58658 504.671 93.2094C611.863 142.066 699.316 45.3028 832.096 105.907C964.876 166.511 781.257 278.494 983.94 374.9C1186.62 471.306 1042.58 764.851 857.024 744.12C671.465 723.388 715.485 781.713 514.751 875.614C314.016 969.515 23.9311 764.463 124.42 601.266C224.909 438.069 142.124 467.528 96.1566 218.897Z" stroke="white" stroke-width="1.2494"/>
<path d="M471.817 442.567C466.33 420.502 509.521 391.729 538.735 410.256C565.487 427.221 595.694 422.106 614.089 430.518C662.518 452.662 642.86 458.446 662.987 479.843C687.478 505.882 692.804 566.354 629.67 558.075C577.746 551.267 590.449 574.708 550.312 579.094C510.175 583.479 468.219 561.554 473.845 519.052C475.958 503.091 480.956 479.317 471.817 442.567Z" stroke="white" stroke-width="1.2494"/>
<path d="M130.446 238.161C91.3438 27.3556 339.18 35.9841 507.906 120.962C607.785 166.92 690.034 78.4876 812.415 134.347C937.527 191.455 768.814 293.783 954.9 383.37C1141.38 473.379 1010.92 745.736 836.494 726.137C663.084 706.671 704.256 761.824 518.122 847.587C331.987 933.351 64.4591 744.947 156.324 592.722C247.87 442.91 173.065 467.53 130.446 238.161Z" stroke="white" stroke-width="1.2494"/>
<path d="M164.733 257.423C128.993 65.4918 356.365 70.3802 511.139 148.713C603.706 191.772 680.75 111.671 792.733 162.786C910.177 216.397 756.369 309.071 925.86 391.839C1096.14 475.451 979.261 726.62 815.962 708.153C654.7 689.953 693.026 741.935 521.491 819.56C349.956 897.186 104.985 725.43 188.227 584.177C270.829 447.75 204.005 467.531 164.733 257.423Z" stroke="white" stroke-width="1.2494"/>
<path d="M199.023 276.688C166.644 103.631 373.552 104.779 514.375 176.467C599.629 216.626 671.469 144.857 773.054 191.227C882.829 241.342 743.926 324.362 896.821 400.311C1050.91 477.526 947.602 707.506 795.432 690.171C646.32 673.237 681.798 722.048 524.863 791.536C367.928 861.024 145.514 705.915 220.132 575.635C293.791 452.593 234.947 467.534 199.023 276.688Z" stroke="white" stroke-width="1.2494"/>
<path d="M233.308 295.952C204.29 141.769 390.734 139.177 517.606 204.22C595.547 241.48 662.183 178.043 753.369 219.668C855.476 266.287 731.479 339.652 867.778 408.782C1005.66 479.6 915.938 688.392 774.898 672.189C637.934 656.52 670.565 702.16 528.23 763.51C385.894 824.86 186.038 686.4 252.031 567.092C316.747 457.435 265.883 467.536 233.308 295.952Z" stroke="white" stroke-width="1.2494"/>
<path d="M267.503 315.954C241.847 180.645 407.826 174.313 520.747 232.711C591.376 267.071 652.808 211.966 733.595 248.846C828.033 291.969 718.942 355.679 838.645 417.991C960.332 482.412 884.185 670.015 754.274 654.944C629.458 640.541 659.243 683.01 531.507 736.222C403.772 789.435 226.472 667.622 283.842 559.286C339.614 463.014 296.73 468.276 267.503 315.954Z" stroke="white" stroke-width="1.2494"/>
<path d="M301.578 336.826C279.283 220.39 424.797 210.318 523.767 262.071C587.083 293.532 643.311 246.758 713.699 278.894C800.469 318.52 706.284 372.576 809.391 428.069C914.878 486.092 852.31 652.507 733.529 638.569C620.862 625.432 647.799 664.729 534.663 709.803C421.528 754.878 266.785 649.713 315.531 552.349C362.36 469.463 327.457 469.886 301.578 336.826Z" stroke="white" stroke-width="1.2494"/>
<path d="M335.643 357.745C316.71 260.183 441.76 246.371 526.778 291.479C582.781 320.041 633.805 281.599 693.795 308.99C772.896 345.12 693.616 389.521 780.127 438.195C869.415 489.821 820.426 635.048 712.775 622.241C612.256 610.37 636.347 646.495 537.811 683.432C439.275 720.369 307.089 631.852 347.211 545.461C385.098 475.959 358.174 471.543 335.643 357.745Z" stroke="white" stroke-width="1.2494"/>
<path d="M369.704 378.732C354.132 300.045 458.717 282.493 529.785 320.955C578.475 346.618 624.294 316.507 673.885 339.153C745.319 371.787 680.944 406.534 750.859 448.389C823.948 493.618 788.538 617.656 692.016 605.981C603.646 595.376 624.889 628.33 540.953 657.13C457.017 685.929 347.389 614.06 378.887 538.641C407.83 482.524 388.886 473.268 369.704 378.732Z" stroke="white" stroke-width="1.2494"/>
<path d="M403.761 399.825C391.551 340.012 475.671 318.72 532.788 350.537C574.166 373.301 614.78 351.522 653.973 369.423C717.738 398.56 668.269 423.653 721.588 458.688C778.478 497.521 756.646 600.37 671.254 589.828C595.032 580.488 613.429 610.271 544.093 630.933C474.756 651.594 387.685 596.373 410.559 531.926C430.559 489.195 419.596 475.099 403.761 399.825Z" stroke="white" stroke-width="1.2494"/>
<path d="M437.796 421.073C428.948 380.134 492.603 355.102 535.768 380.274C569.833 400.138 605.244 386.691 634.038 399.848C690.135 425.489 655.572 440.926 692.294 469.143C732.985 501.579 724.732 583.239 650.469 573.829C586.396 565.755 601.946 592.367 547.209 604.891C492.473 617.414 427.958 578.841 442.209 525.367C453.265 496.021 450.283 477.086 437.796 421.073Z" stroke="white" stroke-width="1.2494"/>
</svg>
