<svg aria-hidden="true" style="position:absolute;width:0;height:0;overflow:hidden" xmlns="http://www.w3.org/2000/svg">
    <defs>
        <symbol id="logo" viewBox="0 0 23 23">
            <mask id="mask0_3500_15" style="mask-type:alpha" maskUnits="userSpaceOnUse" x="0" y="0" width="23"
                height="23">
                <path
                    d="M0 18.4153L5.18842 23H20.4087L22.5879 19.9381L0.00191667 18.4153H0ZM13.4023 0V18.2783L20.4068 18.7603L13.4023 0ZM12.4478 3.08008L2.32779 17.481L12.4478 18.1642V3.08008Z"
                    fill="black" />
            </mask>
            <g mask="url(#mask0_3500_15)">
                <path d="M0 0H23V23H0V0Z" fill="url(#paint0_linear_3500_15)" />
            </g>
            <defs>
                <linearGradient id="paint0_linear_3500_15" x1="9.79396" y1="3.48665e-06" x2="21.5409" y2="0.444325"
                    gradientUnits="userSpaceOnUse">
                    <stop stop-color="#BEC7C2" />
                    <stop offset="1" stop-color="#A1B5BA" />
                </linearGradient>
            </defs>
        </symbol>
        <symbol id="arrow-left" viewBox="0 0 58 32">
            <path fill="#f6f5ef" style="fill:var(--color1, #f6f5ef)"
                d="M17.6 2.144 0 16l17.6 13.856V18.4h40v-4.8h-40V2.144z" />
        </symbol>
        <symbol id="arrow-right" viewBox="0 0 58 32">
            <path fill="#f6f5ef" style="fill:var(--color1, #f6f5ef)"
                d="M40 2.144 57.6 16 40 29.856V18.4H0v-4.8h40V2.144z" />
        </symbol>
        <symbol id="arrow-up" viewBox="0 0 17 32">
            <path fill="#f6f5ef" style="fill:var(--color1, #f6f5ef)"
                d="M0 9.778 8.533 0l8.533 9.778h-7.055V32H7.055V9.778H0z" />
        </symbol>
        <symbol id="close" viewBox="0 0 32 32">
            <path fill="none" stroke="#f6f5ef" style="stroke:var(--color1, #f6f5ef)" stroke-linejoin="round"
                stroke-linecap="round" stroke-width="1.733" d="M24 8 8 24M8 8l16 16" />
        </symbol>
        <symbol id="menu" viewBox="0 0 32 32">
            <path fill="#f6f5ef" style="fill:var(--color1, #f6f5ef)"
                d="M2.667 7.993c0-.733.595-1.327 1.327-1.327h10.68a1.326 1.326 0 0 1 0 2.654H3.994a1.326 1.326 0 0 1-1.327-1.327zm0 8.007c0-.733.595-1.327 1.327-1.327h24.013a1.326 1.326 0 0 1 0 2.654H3.994A1.326 1.326 0 0 1 2.667 16zm1.326 6.68a1.326 1.326 0 0 0 0 2.654h16.013a1.326 1.326 0 0 0 0-2.654H3.993z" />
        </symbol>
        <symbol id="facebook" viewBox="0 0 32 32">
            <path stroke-width=".8"
                d="M4.8.4h22.4a4.4 4.4 0 0 1 4.4 4.4v22.4a4.4 4.4 0 0 1-4.4 4.4H4.8a4.4 4.4 0 0 1-4.4-4.4V4.8A4.4 4.4 0 0 1 4.8.4z" />
            <path
                d="M18.552 10.523H20V8.106A20.364 20.364 0 0 0 17.89 8c-2.094 0-3.526 1.262-3.526 3.572v1.991H12v2.706h2.364V23.2h2.833v-6.931h2.356l.354-2.706h-2.71v-1.725c0-.798.216-1.315 1.355-1.315z" />
        </symbol>
        <symbol id="instagram" viewBox="0 0 32 32">
            <path stroke-width=".8"
                d="M4.8.4h22.4a4.4 4.4 0 0 1 4.4 4.4v22.4a4.4 4.4 0 0 1-4.4 4.4H4.8a4.4 4.4 0 0 1-4.4-4.4V4.8A4.4 4.4 0 0 1 4.8.4z" />
            <path
                d="M19.845 11.291a.863.863 0 1 0 0 1.727.863.863 0 0 0 0-1.727zm3.312 1.743a5.482 5.482 0 0 0-.331-1.75 3.553 3.553 0 0 0-.835-1.274 3.39 3.39 0 0 0-1.274-.828 5.235 5.235 0 0 0-1.75-.338c-.763-.043-1.008-.043-2.966-.043s-2.203 0-2.966.043a5.265 5.265 0 0 0-1.75.338c-.481.178-.917.46-1.274.828a3.39 3.39 0 0 0-.828 1.274 5.235 5.235 0 0 0-.338 1.75c-.043.763-.043 1.008-.043 2.966s0 2.203.043 2.966c.012.598.127 1.19.338 1.75.176.482.459.918.828 1.274.358.368.793.65 1.274.828.56.212 1.151.326 1.75.338.763.043 1.008.043 2.966.043s2.203 0 2.966-.043a5.265 5.265 0 0 0 1.75-.338 3.382 3.382 0 0 0 1.274-.828c.369-.358.654-.793.835-1.274a5.471 5.471 0 0 0 .331-1.75c0-.763.043-1.008.043-2.966s0-2.203-.043-2.966zm-1.296 5.846c-.005.457-.088.91-.245 1.339-.115.313-.3.596-.54.828a2.303 2.303 0 0 1-.828.54c-.429.157-.882.24-1.339.245-.72.036-.986.043-2.88.043s-2.16 0-2.88-.043a4.119 4.119 0 0 1-1.397-.216 2.364 2.364 0 0 1-.792-.54 2.166 2.166 0 0 1-.533-.828 3.995 3.995 0 0 1-.288-1.368c0-.72-.043-.986-.043-2.88s0-2.16.043-2.88c.003-.467.089-.93.252-1.368.127-.304.321-.575.569-.792.219-.248.489-.444.792-.576a4.143 4.143 0 0 1 1.368-.245c.72 0 .986-.043 2.88-.043s2.16 0 2.88.043c.457.005.91.088 1.339.245.327.121.621.319.857.576.236.221.42.492.54.792.16.438.243.901.245 1.368.036.72.043.986.043 2.88s-.007 2.16-.043 2.88zM16 12.306a3.687 3.687 0 0 0-3.407 2.285 3.69 3.69 0 0 0 .806 4.022A3.694 3.694 0 1 0 16 12.307zm0 6.092a2.4 2.4 0 0 1-2.215-1.48 2.396 2.396 0 0 1 1.748-3.269 2.396 2.396 0 0 1 1.385 4.567 2.39 2.39 0 0 1-.918.182z" />
        </symbol>
        <symbol id="youtube" viewBox="0 0 32 32">
            <path stroke-width=".8"
                d="M4.8.4h22.4a4.4 4.4 0 0 1 4.4 4.4v22.4a4.4 4.4 0 0 1-4.4 4.4H4.8a4.4 4.4 0 0 1-4.4-4.4V4.8A4.4 4.4 0 0 1 4.8.4z" />
            <path
                d="M20.532 10.5c-.748-.044-2.288-.088-4.62-.088h-.308c-2.244 0-3.74.044-4.488.132-1.012.088-1.716.352-2.112.704-.352.308-.616.88-.704 1.628-.044.484-.088 1.496-.088 3.036v.22c0 1.452.044 2.464.132 2.948.132.704.352 1.232.792 1.54.44.352 1.188.572 2.244.66.748.044 2.288.088 4.62.088h.308c2.244 0 3.74-.044 4.488-.132 1.012-.088 1.716-.352 2.112-.704.352-.308.616-.88.704-1.628.044-.484.088-1.496.088-3.036v-.22c0-1.452-.044-2.464-.132-2.948-.132-.704-.352-1.232-.792-1.54-.44-.352-1.188-.572-2.244-.66zm-1.716 5.412-4.84 2.904v-5.808l4.84 2.904z" />
        </symbol>
    </defs>
</svg>